<svg xmlns="http://www.w3.org/2000/svg" viewBox="0 0 64 64" width="64" height="64">
  <rect width="64" height="64" rx="8" fill="#1c1a18"/>
  <circle cx="32" cy="32" r="26" fill="none" stroke="#C9A44A" stroke-width="1"/>
  <circle cx="32" cy="32" r="22" fill="none" stroke="#C9A44A" stroke-width="0.4" stroke-dasharray="3 2"/>
  <!-- Botanical leaf element -->
  <path d="M32 14 C26 18 24 24 26 30 C28 36 32 38 32 38 C32 38 36 36 38 30 C40 24 38 18 32 14Z" fill="none" stroke="#C9A44A" stroke-width="0.9"/>
  <line x1="32" y1="14" x2="32" y2="38" stroke="#C9A44A" stroke-width="0.5"/>
  <!-- Leaf veins -->
  <path d="M32 22 Q28 23 27 26" stroke="#C9A44A" stroke-width="0.4" fill="none"/>
  <path d="M32 22 Q36 23 37 26" stroke="#C9A44A" stroke-width="0.4" fill="none"/>
  <path d="M32 27 Q29 28 28 31" stroke="#C9A44A" stroke-width="0.4" fill="none"/>
  <path d="M32 27 Q35 28 36 31" stroke="#C9A44A" stroke-width="0.4" fill="none"/>
  <!-- Stem below -->
  <line x1="32" y1="38" x2="32" y2="50" stroke="#C9A44A" stroke-width="0.8"/>
  <!-- B monogram -->
  <text x="32" y="36" text-anchor="middle" font-family="Georgia, serif" font-size="14" font-style="italic" fill="#C9A44A" opacity="0" font-weight="300">B</text>
</svg>
